<svg width="27" height="28" viewBox="0 0 27 28" fill="none" xmlns="http://www.w3.org/2000/svg">
  <path
    d="M13.5 0C10.83 0 8.21987 0.815146 5.99981 2.34236C3.77974 3.86957 2.04942 6.04025 1.02763 8.57991C0.00584933 11.1196 -0.261496 13.9141 0.259405 16.6102C0.780305 19.3063 2.06606 21.7828 3.95406 23.7266C5.84207 25.6704 8.24754 26.9941 10.8663 27.5304C13.485 28.0667 16.1994 27.7914 18.6662 26.7395C21.133 25.6875 23.2414 23.9061 24.7248 21.6204C26.2082 19.3348 27 16.6476 27 13.8987C27 12.0735 26.6508 10.2662 25.9724 8.57991C25.2939 6.89364 24.2995 5.36146 23.0459 4.07084C21.7924 2.78023 20.3041 1.75645 18.6662 1.05798C17.0283 0.359501 15.2728 0 13.5 0ZM13.5 25.0177C11.364 25.0177 9.2759 24.3656 7.49985 23.1438C5.7238 21.922 4.33953 20.1855 3.52211 18.1538C2.70468 16.122 2.4908 13.8864 2.90753 11.7295C3.32425 9.57265 4.35284 7.59144 5.86325 6.03642C7.37366 4.4814 9.29803 3.42242 11.393 2.99339C13.488 2.56436 15.6595 2.78456 17.633 3.62613C19.6064 4.4677 21.2932 5.89284 22.4799 7.72135C23.6666 9.54986 24.3 11.6996 24.3 13.8987C24.3 16.8477 23.1621 19.6758 21.1368 21.761C19.1114 23.8462 16.3643 25.0177 13.5 25.0177ZM18.9 12.5089H14.85V8.33923C14.85 7.97062 14.7078 7.6171 14.4546 7.35645C14.2014 7.09579 13.858 6.94936 13.5 6.94936C13.142 6.94936 12.7986 7.09579 12.5454 7.35645C12.2922 7.6171 12.15 7.97062 12.15 8.33923V12.5089H8.1C7.74196 12.5089 7.39858 12.6553 7.14541 12.9159C6.89224 13.1766 6.75 13.5301 6.75 13.8987C6.75 14.2673 6.89224 14.6209 7.14541 14.8815C7.39858 15.1422 7.74196 15.2886 8.1 15.2886H12.15V19.4582C12.15 19.8268 12.2922 20.1803 12.5454 20.441C12.7986 20.7017 13.142 20.8481 13.5 20.8481C13.858 20.8481 14.2014 20.7017 14.4546 20.441C14.7078 20.1803 14.85 19.8268 14.85 19.4582V15.2886H18.9C19.258 15.2886 19.6014 15.1422 19.8546 14.8815C20.1078 14.6209 20.25 14.2673 20.25 13.8987C20.25 13.5301 20.1078 13.1766 19.8546 12.9159C19.6014 12.6553 19.258 12.5089 18.9 12.5089Z"
    fill="currentColor" />
</svg>