<svg width="27" height="27" viewBox="0 0 27 27" fill="none" xmlns="http://www.w3.org/2000/svg">
  <path
    d="M11.0835 17.2125C11.209 17.339 11.3583 17.4395 11.5228 17.508C11.6873 17.5765 11.8638 17.6118 12.042 17.6118C12.2202 17.6118 12.3967 17.5765 12.5612 17.508C12.7257 17.4395 12.875 17.339 13.0005 17.2125L18.5085 11.7045C18.7627 11.4503 18.9055 11.1055 18.9055 10.746C18.9055 10.3865 18.7627 10.0417 18.5085 9.7875C18.2543 9.53329 17.9095 9.39048 17.55 9.39048C17.1905 9.39048 16.8457 9.53329 16.5915 9.7875L12.042 14.3505L10.4085 12.7035C10.1543 12.4493 9.80951 12.3065 9.45 12.3065C9.09049 12.3065 8.74571 12.4493 8.4915 12.7035C8.23729 12.9577 8.09448 13.3025 8.09448 13.662C8.09448 14.0215 8.23729 14.3663 8.4915 14.6205L11.0835 17.2125ZM25.65 0H1.35C0.991958 0 0.64858 0.142232 0.395406 0.395406C0.142232 0.64858 0 0.991958 0 1.35V25.65C0 26.008 0.142232 26.3514 0.395406 26.6046C0.64858 26.8578 0.991958 27 1.35 27H25.65C26.008 27 26.3514 26.8578 26.6046 26.6046C26.8578 26.3514 27 26.008 27 25.65V1.35C27 0.991958 26.8578 0.64858 26.6046 0.395406C26.3514 0.142232 26.008 0 25.65 0V0ZM24.3 24.3H2.7V2.7H24.3V24.3Z"
    fill="currentColor" />
</svg>