<svg width="28" height="28" viewBox="0 0 28 28" fill="none" xmlns="http://www.w3.org/2000/svg">
  <path
    d="M26.4444 8.33035L17.1111 1.05642C16.2556 0.376111 15.1479 0 14 0C12.8522 0 11.7445 0.376111 10.889 1.05642L1.55569 8.33035C1.0616 8.72319 0.667321 9.2051 0.399101 9.74399C0.130881 10.2829 -0.00512172 10.8664 0.000147456 11.4557V23.542C0.000147456 24.6423 0.491809 25.6975 1.36697 26.4755C2.24214 27.2535 3.42911 27.6906 4.66678 27.6906H23.3333C24.571 27.6906 25.758 27.2535 26.6331 26.4755C27.5083 25.6975 28 24.6423 28 23.542V11.4418C28.003 10.8549 27.8659 10.274 27.5978 9.73768C27.3296 9.20132 26.9365 8.72165 26.4444 8.33035ZM17.1111 24.9249H10.889V18.0105C10.889 17.6437 11.0528 17.292 11.3446 17.0326C11.6363 16.7733 12.0319 16.6276 12.4445 16.6276H15.5556C15.9681 16.6276 16.3638 16.7733 16.6555 17.0326C16.9472 17.292 17.1111 17.6437 17.1111 18.0105V24.9249ZM24.8889 23.542C24.8889 23.9088 24.725 24.2605 24.4333 24.5198C24.1415 24.7792 23.7459 24.9249 23.3333 24.9249H20.2222V18.0105C20.2222 16.9102 19.7306 15.855 18.8554 15.077C17.9802 14.2989 16.7933 13.8619 15.5556 13.8619H12.4445C11.2068 13.8619 10.0199 14.2989 9.1447 15.077C8.26953 15.855 7.77787 16.9102 7.77787 18.0105V24.9249H4.66678C4.25423 24.9249 3.85857 24.7792 3.56685 24.5198C3.27512 24.2605 3.11124 23.9088 3.11124 23.542V11.4418C3.11152 11.2455 3.15883 11.0514 3.25002 10.8726C3.34121 10.6938 3.47419 10.5343 3.64012 10.4047L12.9734 3.14457C13.2573 2.92286 13.6222 2.8006 14 2.8006C14.3779 2.8006 14.7428 2.92286 15.0267 3.14457L24.36 10.4047C24.5259 10.5343 24.6589 10.6938 24.7501 10.8726C24.8413 11.0514 24.8886 11.2455 24.8889 11.4418V23.542Z"
    fill="currentColor" />
</svg>